PathFileType	4	(X/Y/Z)	C:/Users/beibeiliu/ov580/test_trc/User3\sequence.5_training_dense_left.trc
DataRate	CameraRate	NumFrames	NumMarkers	Units	OrigDataRate	OrigDataStartFrame	OrigNumFrames
120	120	9	19	mm	120	53	79
Frame#	Time	ThumbCMC			ThumbMCP			ThumbIP			ThumbTip			IndexMCP			IndexPIP			IndexTip			MiddleMCP			MiddlePIP			MiddleTip			RingMCP			RingPIP			RingTip			PinkyMCP			PinkyPIP			PinkyTip			BackHand1			BackHand2			BackHand3	
		X0	Y0	Z0	X1	Y1	Z1	X2	Y2	Z2	X3	Y3	Z3	X4	Y4	Z4	X5	Y5	Z5	X6	Y6	Z6	X7	Y7	Z7	X8	Y8	Z8	X9	Y9	Z9	X10	Y10	Z10	X11	Y11	Z11	X12	Y12	Z12	X13	Y13	Z13	X14	Y14	Z14	X15	Y15	Z15	X16	Y16	Z16	X17	Y17	Z17	X18	Y18	Z18	
52	0.433333	-114.458	1.84475	22.0053	-98.7602	-3.56306	-5.69108	-98.8182	-7.00011	-43.6251	-113.843	-17.6497	-61.1225	-127.677	29.7651	-47.3263	-118.584	26.3116	-72.4947	-111.245	19.6019	-97.7865	-141.461	7.36249	-57.7025	-122.82	-16.9564	-61.3721	-122.643	-21.0066	-19.7754	-154.643	-10.9774	-44.516	-134.565	-34.1222	-36.8001	-138.829	-24.1475	-4.21359	-165.113	-24.3239	-37.5916	-145.163	-39.1534	-23.0735	-151.024	-26.5796	5.77921	-172.353	12.7126	0.84173	-178.179	3.34593	35.0137	-144.468	25.192	19.7592	
53	0.441667	-115.432	5.99168	14.9748	-104.593	1.83326	-21.2455	-107.317	-6.58889	-52.7131	-123.571	-19.3481	-65.8562	-145.203	35.1262	-51.589	-141.586	37.456	-80.7548	-137.748	35.5956	-104.121	-150.201	8.45616	-62.6377	-132.07	-18.941	-65.6942	-130.197	-20.9597	-26.6143	-158.483	-10.4814	-50.535	-142.251	-34.2324	-43.3383	-138.416	-25.7757	-11.9741	-170.761	-23.5683	-41.0499	-148.228	-38.1708	-30.3445	-150.098	-28.4942	-1.95729	-182.839	9.51835	2.25356	-179.034	2.9789	30.8122	-150.147	26.8411	13.5076	
54	0.45	-122.848	12.6289	1.24192	-113.765	5.18471	-28.347	-117.583	-4.6619	-60.1845	-133.958	-20.4583	-71.4995	-163.841	33.6077	-58.0141	-167.659	37.1878	-88.7314	-168.638	35.6683	-110.114	-168.294	2.13726	-65.8219	-142.68	-20.0625	-70.2406	-135.482	-18.1237	-31.742	-172.203	-17.0627	-52.2178	-149.288	-37.5422	-44.6941	-144.101	-24.1565	-16.9725	-176.64	-29.8998	-43.9532	-154.077	-40.597	-33.85	-155.31	-27.0299	-7.5623	-189.836	6.83079	-2.64316	-182.056	-1.26682	28.5971	-157.424	25.51	7.53282	
55	0.458333	-128.974	11.3174	-3.07639	-119.682	4.63829	-37.0327	-126.462	-8.05062	-62.5644	-140.278	-25.9154	-78.9252	-173.068	24.8894	-61.6515	-178.432	23.5732	-90.8014	-183.416	20.9357	-114.886	-173.343	-2.81164	-69.022	-147.448	-25.2872	-73.8858	-140.976	-23.2804	-37.0209	-177.108	-18.7985	-54.3462	-151.278	-40.9286	-46.0036	-148.125	-25.9867	-19.188	-183.368	-35.9414	-44.2378	-158.442	-44.2118	-37.5478	-161.231	-29.5597	-6.49977	-190.882	4.35821	-5.37701	-183.165	1.81221	23.4555	-164.135	25.1997	5.56723	
56	0.466667	-132.939	10.5471	-8.19619	-123.489	1.65715	-39.9149	-129.093	-12.7455	-67.5309	-142.578	-32.0766	-78.8459	-176.721	13.947	-70.0195	-178.755	8.25201	-94.3517	-184.515	4.26666	-114.989	-178.158	-13.7088	-71.9288	-153.134	-35.6384	-71.2859	-147.712	-25.8208	-34.0839	-181.886	-27.9876	-54.1136	-155.676	-46.8603	-45.5768	-152.092	-26.2832	-20.6019	-188.632	-39.9224	-41.5437	-162.748	-50.7293	-37.5085	-163.562	-34.1557	-8.47502	-199.789	-2.63082	-9.86229	-189.449	-1.90924	25.165	-167.736	21.2825	-3.08736	
57	0.475	-139.011	8.70543	-8.89398	-132.27	-0.168176	-41.095	-141.746	-17.8561	-68.0777	-153.496	-36.0729	-76.2552	-188.009	7.6544	-73.5033	-194.872	-0.191828	-94.8331	-202.222	-4.63038	-116.897	-189.2	-20.3348	-71.3691	-165.123	-39.755	-75.652	-154.048	-25.7338	-36.725	-187.31	-35.5352	-57.2032	-160.879	-49.0632	-49.9041	-156.515	-31.1644	-24.7802	-194.765	-47.0235	-40.5998	-166.545	-54.662	-34.2173	-165.3	-36.5005	-9.95642	-203.082	-7.45533	-7.33453	-190.792	-0.707269	21.215	-175.593	18.8669	-2.97457	
58	0.483333	-142.141	18.581	-17.9161	-140.445	6.20953	-49.8262	-147.22	-9.12121	-74.5856	-164.375	-30.6895	-83.0379	-201.149	17.646	-70.7367	-212.435	11.5087	-94.0829	-223.773	2.57679	-120.225	-199.891	-12.5389	-71.7374	-171.641	-32.3397	-77.6532	-159.474	-18.0426	-43.3038	-199.03	-27.6785	-57.6381	-170.473	-42.7269	-54.3502	-162.286	-25.3153	-30.6817	-202.094	-41.5246	-43.8295	-174.876	-47.0766	-42.4965	-170.966	-28.2882	-15.6539	-207.458	2.16466	-12.915	-193.942	2.85615	19.806	-182.735	25.1015	-8.25096	
59	0.491667	-142.414	28.5698	-25.4918	-141.881	15.6201	-58.2236	-150.704	-0.732009	-82.1806	-168.419	-21.6149	-86.6589	-204.782	27.9314	-82.1299	-213.931	20.7878	-107.438	-221.074	8.32353	-124.219	-202.235	-4.20389	-80.639	-176.852	-21.4294	-87.5616	-163.6	-11.3273	-51.3098	-200.143	-19.0545	-65.8631	-171.752	-30.7335	-61.5733	-166.27	-11.9213	-33.4973	-204.983	-29.0478	-48.0667	-175.597	-36.7075	-45.1198	-173.968	-20.0427	-24.4198	-209.925	10.1301	-13.167	-196.581	13.6033	13.536	-181.139	38.5552	-16.4701	
60	0.5	-140.276	40.6179	-32.4081	-138.905	27.0076	-63.9105	-149.246	7.54967	-91.4926	-165.143	-10.3144	-92.8394	-194.38	32.9793	-88.4315	-199.987	19.65	-113.241	-203.716	2.04118	-136.424	-195.754	9.74898	-89.5653	-173.701	-12.2078	-92.8792	-157.312	4.10929	-56.258	-197.825	-7.4443	-72.52	-171.598	-23.0247	-65.9652	-162.914	-3.11451	-42.8942	-201.441	-16.4208	-56.744	-176.041	-27.5062	-51.9717	-170.561	-9.88	-27.8587	-207.626	25.2172	-27.3506	-192.633	29.078	5.16038	-180.83	46.2092	-23.5248	
